<?xml version="1.0" encoding="UTF-8"?>
<!DOCTYPE svg PUBLIC "-//W3C//DTD SVG 1.1//EN" "http://www.w3.org/Graphics/SVG/1.1/DTD/svg11.dtd">
<svg xmlns="http://www.w3.org/2000/svg" version="1.1" width="512px" height="512px" style="shape-rendering:geometricPrecision; text-rendering:geometricPrecision; image-rendering:optimizeQuality; fill-rule:evenodd; clip-rule:evenodd" xmlns:xlink="http://www.w3.org/1999/xlink">
<g><path style="opacity:0.994" fill="#a9ed41" d="M 216.5,15.5 C 229.5,15.5 242.5,15.5 255.5,15.5C 255.831,36.6733 255.497,57.6733 254.5,78.5C 242.085,57.334 229.418,36.334 216.5,15.5 Z"/></g>
<g><path style="opacity:0.997" fill="#68db38" d="M 255.5,15.5 C 268.171,15.3334 280.838,15.5001 293.5,16C 300.392,26.7185 307.058,37.5518 313.5,48.5C 318.043,57.0865 322.709,65.5865 327.5,74C 323.897,89.244 320.064,104.411 316,119.5C 301.163,115.582 286.329,111.582 271.5,107.5C 265.889,98.6017 260.555,89.6017 255.5,80.5C 255.167,79.8333 254.833,79.1667 254.5,78.5C 255.497,57.6733 255.831,36.6733 255.5,15.5 Z"/></g>
<g><path style="opacity:0.997" fill="#1cc16e" d="M 216.5,15.5 C 229.418,36.334 242.085,57.334 254.5,78.5C 254.833,79.1667 255.167,79.8333 255.5,80.5C 246.775,93.5994 238.275,106.933 230,120.5C 210.917,108.708 191.75,97.0411 172.5,85.5C 180.616,73.3972 188.283,61.0638 195.5,48.5C 202.264,37.2944 209.264,26.2944 216.5,15.5 Z"/></g>
<g><path style="opacity:1" fill="#674cc2" d="M -0.5,48.5 C 64.8333,48.5 130.167,48.5 195.5,48.5C 188.283,61.0638 180.616,73.3972 172.5,85.5C 191.75,97.0411 210.917,108.708 230,120.5C 238.275,106.933 246.775,93.5994 255.5,80.5C 255.5,169.5 255.5,258.5 255.5,347.5C 300.167,347.5 344.833,347.5 389.5,347.5C 403.5,347.5 417.5,347.5 431.5,347.5C 458.167,347.5 484.833,347.5 511.5,347.5C 511.5,347.833 511.5,348.167 511.5,348.5C 426.167,348.5 340.833,348.5 255.5,348.5C 170.167,348.5 84.8333,348.5 -0.5,348.5C -0.5,248.5 -0.5,148.5 -0.5,48.5 Z"/></g>
<g><path style="opacity:1" fill="#67339e" d="M 313.5,48.5 C 379.5,48.5 445.5,48.5 511.5,48.5C 511.5,148.167 511.5,247.833 511.5,347.5C 484.833,347.5 458.167,347.5 431.5,347.5C 445.965,332.535 460.631,317.701 475.5,303C 466.5,294 457.5,285 448.5,276C 454.212,270.623 459.545,264.957 464.5,259C 458.044,251.543 451.211,244.376 444,237.5C 431.319,250.014 418.819,262.681 406.5,275.5C 414.819,284.319 423.319,292.986 432,301.5C 432.667,302.5 432.667,303.5 432,304.5C 417.631,318.701 403.465,333.035 389.5,347.5C 344.833,347.5 300.167,347.5 255.5,347.5C 255.5,258.5 255.5,169.5 255.5,80.5C 260.555,89.6017 265.889,98.6017 271.5,107.5C 286.329,111.582 301.163,115.582 316,119.5C 320.064,104.411 323.897,89.244 327.5,74C 322.709,65.5865 318.043,57.0865 313.5,48.5 Z"/></g>
<g><path style="opacity:1" fill="#aaec42" d="M 180.5,207.5 C 168.912,229.009 157.578,250.676 146.5,272.5C 146.167,272.5 145.833,272.5 145.5,272.5C 132.313,251.139 119.313,229.639 106.5,208C 116.109,187.949 126.109,168.116 136.5,148.5C 151.303,143.399 166.137,138.399 181,133.5C 186.318,147.956 191.152,162.622 195.5,177.5C 191.017,187.8 186.017,197.8 180.5,207.5 Z"/></g>
<g><path style="opacity:1" fill="#179a83" d="M 404.5,207.5 C 379.833,207.5 355.167,207.5 330.5,207.5C 323.828,193.325 316.495,179.492 308.5,166C 327.777,155.111 347.277,144.611 367,134.5C 380.534,158.233 393.034,182.566 404.5,207.5 Z"/></g>
<g><path style="opacity:1" fill="#68dc38" d="M 180.5,207.5 C 196.5,207.5 212.5,207.5 228.5,207.5C 228.5,229.167 228.5,250.833 228.5,272.5C 201.167,272.5 173.833,272.5 146.5,272.5C 157.578,250.676 168.912,229.009 180.5,207.5 Z"/></g>
<g><path style="opacity:1" fill="#1cc06e" d="M 330.5,207.5 C 355.167,207.5 379.833,207.5 404.5,207.5C 391.754,229.429 378.754,251.263 365.5,273C 342.833,273.667 320.167,273.667 297.5,273C 287.016,261.682 276.349,250.515 265.5,239.5C 276.292,229.208 286.959,218.708 297.5,208C 308.495,207.5 319.495,207.333 330.5,207.5 Z"/></g>
<g><path style="opacity:1" fill="#441b81" d="M 431.5,347.5 C 417.5,347.5 403.5,347.5 389.5,347.5C 403.465,333.035 417.631,318.701 432,304.5C 432.667,303.5 432.667,302.5 432,301.5C 423.319,292.986 414.819,284.319 406.5,275.5C 418.819,262.681 431.319,250.014 444,237.5C 451.211,244.376 458.044,251.543 464.5,259C 459.545,264.957 454.212,270.623 448.5,276C 457.5,285 466.5,294 475.5,303C 460.631,317.701 445.965,332.535 431.5,347.5 Z"/></g>
<g><path style="opacity:1" fill="#67a071" d="M 228.5,207.5 C 229.497,229.327 229.831,251.327 229.5,273.5C 201.328,273.831 173.328,273.498 145.5,272.5C 145.833,272.5 146.167,272.5 146.5,272.5C 173.833,272.5 201.167,272.5 228.5,272.5C 228.5,250.833 228.5,229.167 228.5,207.5 Z"/></g>
<g><path style="opacity:0.999" fill="#b2d3de" d="M -0.5,348.5 C 84.8333,348.5 170.167,348.5 255.5,348.5C 255.5,370.167 255.5,391.833 255.5,413.5C 215.833,413.5 176.167,413.5 136.5,413.5C 90.8333,413.5 45.1667,413.5 -0.5,413.5C -0.5,391.833 -0.5,370.167 -0.5,348.5 Z"/></g>
<g><path style="opacity:0.999" fill="#90afc4" d="M 255.5,348.5 C 340.833,348.5 426.167,348.5 511.5,348.5C 511.5,370.167 511.5,391.833 511.5,413.5C 465.833,413.5 420.167,413.5 374.5,413.5C 334.833,413.5 295.167,413.5 255.5,413.5C 255.5,391.833 255.5,370.167 255.5,348.5 Z"/></g>
<g><path style="opacity:1" fill="#91b0c5" d="M 136.5,413.5 C 176.167,413.5 215.833,413.5 255.5,413.5C 255.5,430.833 255.5,448.167 255.5,465.5C 215.761,465.827 176.094,465.494 136.5,464.5C 136.5,447.5 136.5,430.5 136.5,413.5 Z"/></g>
<g><path style="opacity:1" fill="#6f8bab" d="M 255.5,413.5 C 295.167,413.5 334.833,413.5 374.5,413.5C 374.5,430.5 374.5,447.5 374.5,464.5C 334.906,465.494 295.239,465.827 255.5,465.5C 255.5,448.167 255.5,430.833 255.5,413.5 Z"/></g>
<g><path style="opacity:0.989" fill="#91b0c5" d="M 374.5,464.5 C 384.5,464.5 394.5,464.5 404.5,464.5C 404.5,474.833 404.5,485.167 404.5,495.5C 354.833,495.5 305.167,495.5 255.5,495.5C 255.5,485.5 255.5,475.5 255.5,465.5C 295.239,465.827 334.906,465.494 374.5,464.5 Z"/></g>
<g><path style="opacity:1" fill="#b2d3de" d="M 136.5,464.5 C 176.094,465.494 215.761,465.827 255.5,465.5C 255.5,475.5 255.5,485.5 255.5,495.5C 205.833,495.5 156.167,495.5 106.5,495.5C 106.5,485.167 106.5,474.833 106.5,464.5C 116.5,464.5 126.5,464.5 136.5,464.5 Z"/></g>
</svg>
